<svg width="120" height="120" viewBox="0 0 120 120" xmlns="http://www.w3.org/2000/svg">
  <rect width="120" height="120" rx="28" fill="#B45320"/>
  <path d="M39 36C39 29.3726 44.3726 24 51 24H69C75.6274 24 81 29.3726 81 36V84C81 90.6274 75.6274 96 69 96H51C44.3726 96 39 90.6274 39 84V36Z" fill="#F5E8DC"/>
  <path d="M55 41C55 38.7909 56.7909 37 59 37H73C75.2091 37 77 38.7909 77 41V79C77 81.2091 75.2091 83 73 83H59C56.7909 83 55 81.2091 55 79V41Z" fill="#B45320" opacity="0.6"/>
  <circle cx="51" cy="66" r="8" fill="#8C3A08"/>
  <path d="M39 48H45L63 76H55L39 48Z" fill="#8C3A08"/>
</svg>
